<svg width="143" height="23" viewBox="0 0 143 23" fill="none" xmlns="http://www.w3.org/2000/svg">
<path fill-rule="evenodd" clip-rule="evenodd" d="M72.8125 22.4716C71.2165 22.4716 69.7565 22.2068 68.4325 21.6772C67.1085 21.1293 65.9659 20.3713 65.0047 19.4034C64.0616 18.4172 63.327 17.2575 62.801 15.9243C62.2751 14.5728 62.0121 13.0934 62.0121 11.4863C62.0121 9.87915 62.2751 8.40894 62.801 7.07572C63.327 5.74253 64.0616 4.59194 65.0047 3.62398C65.9659 2.63778 67.1085 1.87985 68.4325 1.35024C69.7565 0.802344 71.2165 0.528381 72.8125 0.528381C74.4086 0.528381 75.8595 0.802344 77.1653 1.35024C78.4893 1.87985 79.6319 2.63778 80.5932 3.62398C81.5544 4.59194 82.298 5.74253 82.824 7.07572C83.35 8.40894 83.6129 9.87915 83.6129 11.4863C83.6129 13.0934 83.35 14.5728 82.824 15.9243C82.298 17.2575 81.5544 18.4172 80.5932 19.4034C79.6319 20.3713 78.4893 21.1293 77.1653 21.6772C75.8595 22.2068 74.4086 22.4716 72.8125 22.4716ZM72.8125 19.8965C73.9914 19.8965 75.0705 19.6865 76.0499 19.2664C77.0474 18.8281 77.9089 18.2345 78.6344 17.4858C79.3599 16.7187 79.913 15.8238 80.2939 14.8011C80.6929 13.7783 80.8924 12.6734 80.8924 11.4863C80.8924 10.2992 80.6929 9.19427 80.2939 8.17154C79.913 7.14881 79.3599 6.26302 78.6344 5.51422C77.9089 4.74717 77.0474 4.15363 76.0499 3.73356C75.0705 3.31353 73.9914 3.10349 72.8125 3.10349C71.6336 3.10349 70.5454 3.31353 69.5479 3.73356C68.5685 4.15363 67.7161 4.74717 66.9906 5.51422C66.2833 6.26302 65.7301 7.14881 65.3311 8.17154C64.9321 9.19427 64.7326 10.2992 64.7326 11.4863C64.7326 12.6734 64.9321 13.7783 65.3311 14.8011C65.7301 15.8238 66.2833 16.7187 66.9906 17.4858C67.7161 18.2345 68.5685 18.8281 69.5479 19.2664C70.5454 19.6865 71.6336 19.8965 72.8125 19.8965Z" fill="#E4ECEB"/>
<path d="M47.6893 21.9237C48.7412 22.289 49.8475 22.4716 51.0083 22.4716C51.9877 22.4716 52.9308 22.3438 53.8376 22.0881C54.7626 21.8324 55.5787 21.4489 56.2861 20.9375C57.0115 20.4079 57.5828 19.7595 58 18.9925C58.4353 18.2254 58.6529 17.3214 58.6529 16.2804C58.6529 14.4723 58.0453 13.0204 56.8302 11.9246C55.6331 10.8106 53.9555 10.144 51.7972 9.92479C50.3826 9.77869 49.2944 9.52301 48.5326 9.15775C47.789 8.79248 47.2721 8.36329 46.9819 7.87017C46.7099 7.35881 46.5738 6.82919 46.5738 6.2813C46.5738 5.20376 47.0273 4.40931 47.9341 3.89794C48.8409 3.3683 49.9654 3.11262 51.3075 3.1309C52.0693 3.1309 52.7313 3.24047 53.2935 3.45963C53.8557 3.66051 54.3454 3.94359 54.7626 4.30886C55.1797 4.67412 55.5334 5.12159 55.8236 5.6512C56.0231 5.99822 56.3223 6.23562 56.7213 6.36348C57.1204 6.4913 57.4922 6.44565 57.8368 6.2265C58.1451 6.02562 58.3174 5.75166 58.3536 5.40464C58.4081 5.03938 58.3083 4.65587 58.0544 4.25408C57.601 3.50528 57.0659 2.85693 56.4493 2.30904C55.8326 1.76115 55.1072 1.33196 54.2729 1.0215C53.4567 0.711012 52.4955 0.555784 51.3891 0.555784C49.9745 0.555784 48.6868 0.774941 47.526 1.21326C46.3834 1.65157 45.4766 2.29079 44.8055 3.1309C44.1345 3.971 43.7989 4.99373 43.7989 6.19909C43.7989 7.8428 44.4428 9.22167 45.7305 10.3357C47.0182 11.4498 48.7865 12.1164 51.0355 12.3356C52.7585 12.5182 53.9918 12.993 54.7354 13.7601C55.4971 14.5271 55.878 15.3946 55.878 16.3626C55.878 17.1296 55.6513 17.778 55.1979 18.3076C54.7444 18.819 54.1459 19.2116 53.4023 19.4856C52.6769 19.7595 51.8788 19.8965 51.0083 19.8965C50.2284 19.8965 49.4848 19.7778 48.7775 19.5404C48.0701 19.303 47.4625 18.9925 46.9547 18.609C46.465 18.2254 46.1114 17.8054 45.8937 17.3488C45.7305 17.0018 45.4856 16.7461 45.1592 16.5817C44.8509 16.3991 44.5335 16.3443 44.207 16.4174C43.7536 16.5087 43.4271 16.7187 43.2276 17.0475C43.0463 17.3762 43.0463 17.7323 43.2276 18.1158C43.5904 18.9742 44.1617 19.7321 44.9415 20.3896C45.7214 21.0471 46.6373 21.5585 47.6893 21.9237Z" fill="#E4ECEB"/>
<path d="M0.408074 21.7867C0.680131 22.0607 1.01566 22.1977 1.41466 22.1977H13.7114C14.1285 22.1977 14.464 22.079 14.718 21.8415C14.9719 21.5859 15.0988 21.2571 15.0988 20.8553C15.0988 20.4718 14.9719 20.1613 14.718 19.9239C14.464 19.6865 14.1285 19.5678 13.7114 19.5678H2.82933V12.7191H10.6372C11.0543 12.7191 11.3899 12.6004 11.6438 12.3629C11.8977 12.1072 12.0247 11.7876 12.0247 11.4041C12.0247 11.0206 11.8977 10.7101 11.6438 10.4727C11.3899 10.217 11.0543 10.0892 10.6372 10.0892H2.82933V3.43223H13.7114C14.1285 3.43223 14.464 3.31353 14.718 3.07609C14.9719 2.83869 15.0988 2.5282 15.0988 2.14469C15.0988 1.74287 14.9719 1.42329 14.718 1.18585C14.464 0.930169 14.1285 0.802344 13.7114 0.802344H1.41466C1.01566 0.802344 0.680131 0.939292 0.408074 1.21326C0.136025 1.46894 0 1.8068 0 2.22686V20.7731C0 21.1749 0.136025 21.5128 0.408074 21.7867Z" fill="#E4ECEB"/>
<path fill-rule="evenodd" clip-rule="evenodd" d="M19.457 21.7867C19.729 22.0607 20.0645 22.1977 20.4635 22.1977C20.8807 22.1977 21.2162 22.0607 21.4701 21.7867C21.7422 21.5128 21.8782 21.1749 21.8782 20.7731V14.7737H25.9046C27.2648 14.7737 28.4709 14.4815 29.5228 13.8971C30.5748 13.3126 31.3909 12.4999 31.9713 11.4589C32.5698 10.4179 32.8691 9.2308 32.8691 7.89758C32.8691 6.50958 32.5698 5.28594 31.9713 4.22668C31.3909 3.14914 30.5748 2.30904 29.5228 1.70634C28.4709 1.10368 27.2648 0.802344 25.9046 0.802344H20.4635C20.0645 0.802344 19.729 0.939292 19.457 1.21326C19.1849 1.46894 19.0489 1.8068 19.0489 2.22686V20.7731C19.0489 21.1749 19.1849 21.5128 19.457 21.7867ZM25.9046 12.1438H21.8782V3.43223H25.9046C26.7389 3.43223 27.4734 3.62398 28.1082 4.00752C28.743 4.39106 29.2417 4.92068 29.6045 5.59643C29.9672 6.2539 30.1486 7.02095 30.1486 7.89758C30.1486 8.71943 29.9672 9.44995 29.6045 10.0892C29.2417 10.7284 28.743 11.2306 28.1082 11.5959C27.4734 11.9611 26.7389 12.1438 25.9046 12.1438Z" fill="#E4ECEB"/>
<path d="M37.4136 22.1977C37.0146 22.1977 36.6791 22.0607 36.407 21.7867C36.135 21.5128 35.9989 21.1749 35.9989 20.7731V2.22686C35.9989 1.8068 36.135 1.46894 36.407 1.21326C36.6791 0.939292 37.0146 0.802344 37.4136 0.802344C37.8307 0.802344 38.1663 0.939292 38.4202 1.21326C38.6922 1.46894 38.8283 1.8068 38.8283 2.22686V20.7731C38.8283 21.1749 38.6922 21.5128 38.4202 21.7867C38.1663 22.0607 37.8307 22.1977 37.4136 22.1977Z" fill="#E4ECEB"/>
<path fill-rule="evenodd" clip-rule="evenodd" d="M88.4527 21.7867C88.7247 22.0607 89.0603 22.1977 89.4593 22.1977H94.3834C95.9432 22.1977 97.3578 21.942 98.6274 21.4306C99.9151 20.901 101.031 20.1613 101.974 19.2116C102.917 18.2437 103.642 17.1114 104.15 15.8147C104.658 14.4997 104.912 13.0569 104.912 11.4863C104.912 9.91567 104.658 8.48199 104.15 7.18533C103.642 5.88864 102.917 4.76545 101.974 3.81577C101.031 2.84781 99.9151 2.10816 98.6274 1.59676C97.3578 1.06715 95.9432 0.802344 94.3834 0.802344H89.4593C89.0603 0.802344 88.7247 0.939292 88.4527 1.21326C88.1806 1.46894 88.0446 1.8068 88.0446 2.22686V20.7731C88.0446 21.1749 88.1806 21.5128 88.4527 21.7867ZM94.3834 19.6773H90.8739V3.32265H94.3834C95.9069 3.32265 97.249 3.66966 98.4098 4.36366C99.5886 5.05766 100.514 6.01646 101.185 7.24011C101.856 8.46375 102.191 9.87915 102.191 11.4863C102.191 13.0752 101.856 14.4906 101.185 15.7325C100.514 16.9561 99.5886 17.9241 98.4098 18.6363C97.249 19.3303 95.9069 19.6773 94.3834 19.6773Z" fill="#E4ECEB"/>
<path d="M110.766 22.1977C110.367 22.1977 110.032 22.0607 109.76 21.7867C109.488 21.5128 109.352 21.1749 109.352 20.7731V2.22686C109.352 1.8068 109.488 1.46894 109.76 1.21326C110.032 0.939292 110.367 0.802344 110.766 0.802344H123.063C123.48 0.802344 123.816 0.930169 124.07 1.18585C124.324 1.42329 124.451 1.74287 124.451 2.14469C124.451 2.5282 124.324 2.83869 124.07 3.07609C123.816 3.31353 123.48 3.43223 123.063 3.43223H112.181V10.0892H119.989C120.406 10.0892 120.742 10.217 120.996 10.4727C121.249 10.7101 121.376 11.0206 121.376 11.4041C121.376 11.7876 121.249 12.1072 120.996 12.3629C120.742 12.6004 120.406 12.7191 119.989 12.7191H112.181V19.5678H123.063C123.48 19.5678 123.816 19.6865 124.07 19.9239C124.324 20.1613 124.451 20.4718 124.451 20.8553C124.451 21.2571 124.324 21.5859 124.07 21.8415C123.816 22.079 123.48 22.1977 123.063 22.1977H110.766Z" fill="#E4ECEB"/>
<path d="M131.828 21.9237C132.88 22.289 133.987 22.4716 135.147 22.4716C136.127 22.4716 137.07 22.3438 137.977 22.0881C138.902 21.8324 139.718 21.4489 140.425 20.9375C141.151 20.4079 141.722 19.7595 142.139 18.9925C142.574 18.2254 142.792 17.3214 142.792 16.2804C142.792 14.4723 142.185 13.0204 140.969 11.9246C139.772 10.8106 138.095 10.144 135.936 9.92479C134.522 9.77869 133.434 9.52301 132.672 9.15775C131.928 8.79248 131.411 8.36329 131.121 7.87017C130.849 7.35881 130.713 6.82919 130.713 6.2813C130.713 5.20376 131.166 4.40931 132.073 3.89794C132.98 3.3683 134.105 3.11262 135.447 3.1309C136.208 3.1309 136.87 3.24047 137.433 3.45963C137.995 3.66051 138.485 3.94359 138.902 4.30886C139.319 4.67412 139.673 5.12159 139.963 5.6512C140.162 5.99822 140.462 6.23562 140.861 6.36348C141.26 6.4913 141.631 6.44565 141.976 6.2265C142.284 6.02562 142.457 5.75166 142.493 5.40464C142.547 5.03938 142.447 4.65587 142.194 4.25408C141.74 3.50528 141.205 2.85693 140.588 2.30904C139.972 1.76115 139.246 1.33196 138.412 1.0215C137.596 0.711012 136.635 0.555784 135.528 0.555784C134.114 0.555784 132.826 0.774941 131.665 1.21326C130.523 1.65157 129.616 2.29079 128.945 3.1309C128.274 3.971 127.938 4.99373 127.938 6.19909C127.938 7.8428 128.582 9.22167 129.87 10.3357C131.157 11.4498 132.926 12.1164 135.175 12.3356C136.898 12.5182 138.131 12.993 138.875 13.7601C139.636 14.5271 140.017 15.3946 140.017 16.3626C140.017 17.1296 139.79 17.778 139.337 18.3076C138.884 18.819 138.285 19.2116 137.542 19.4856C136.816 19.7595 136.018 19.8965 135.147 19.8965C134.368 19.8965 133.624 19.7778 132.917 19.5404C132.209 19.303 131.602 18.9925 131.094 18.609C130.604 18.2254 130.251 17.8054 130.033 17.3488C129.87 17.0018 129.625 16.7461 129.298 16.5817C128.99 16.3991 128.673 16.3443 128.346 16.4174C127.893 16.5087 127.566 16.7187 127.367 17.0475C127.185 17.3762 127.185 17.7323 127.367 18.1158C127.73 18.9742 128.301 19.7321 129.081 20.3896C129.861 21.0471 130.777 21.5585 131.828 21.9237Z" fill="#E4ECEB"/>
</svg>
